<svg xmlns="http://www.w3.org/2000/svg" xmlns:xlink="http://www.w3.org/1999/xlink" width="987.512" height="212" viewBox="0 0 987.512 212"><defs><clipPath id="a"><rect width="212" height="212" rx="53" transform="translate(1427 1301)" fill="none" stroke="#707070" stroke-width="1"/></clipPath><clipPath id="b"><rect width="212" height="212" rx="6" transform="translate(1505.488 1379.488)" fill="none"/></clipPath><linearGradient id="c" y1="0.5" x2="1" y2="0.5" gradientUnits="objectBoundingBox"><stop offset="0" stop-color="#7bf08b"/><stop offset="1" stop-color="#1add5d"/></linearGradient></defs><g transform="translate(-1427 -1301)"><g clip-path="url(#a)"><g transform="translate(-78.488 -78.488)" clip-path="url(#b)"><g transform="translate(1505.488 1379.488)" style="isolation:isolate"><g transform="translate(0 0)"><g transform="translate(0)"><rect width="212" height="212" transform="translate(0)" fill="url(#c)"/><path d="M317.628,332.031c-13.216,10.761-49.6-18.013-60.087-26.78l-.924-.776-.053-.043-1.045-.869-.047-.039q-.45-.358-.854-.668a32.14,32.14,0,0,0-3.05-2.107h0a9.872,9.872,0,0,0-1.027-.548h-.033c-4.565-2.323-13.037-5.35-26.195-5.35-.789-.021-1.575,0-2.351.039-.279.012-.555.031-.834.055s-.5.041-.752.068c-.185.018-.37.041-.557.066s-.316.035-.47.06c-.228.031-.458.062-.686.1s-.477.074-.709.117c-.152.029-.3.056-.452.086s-.275.049-.411.08c-.339.066-.68.139-1.015.224l-.606.146c-.218.051-.431.107-.645.17-.16.043-.324.089-.485.135s-.3.087-.456.134c-.205.058-.411.123-.616.189l-.579.187-.226.078c-.226.078-.452.154-.676.238s-.5.183-.747.279-.433.166-.647.253l-.14.055-.649.273a.75.75,0,0,0-.08.035l-.45.193-.435.205q-.336.154-.659.31c-.164.078-.329.154-.489.236-.205.095-.411.193-.6.3-.129.062-.257.125-.382.2-.554.287-1.1.583-1.643.893-.205.115-.411.232-.6.353l-.452.269c-.154.092-.306.189-.458.281l-.068.043-.54.343c-.162.1-.323.205-.477.312-.193.125-.382.253-.571.382l-.111.076c-.205.137-.4.277-.6.411-.148.107-.3.205-.446.32-.318.228-.63.46-.937.692s-.6.468-.9.7a45,45,0,0,0-3.409,2.994q-.247.236-.481.474l-.205.205c-.245.244-.478.489-.711.733a34.812,34.812,0,0,0-3.187,3.9c-.086.127-.173.253-.257.38q-.422.616-.77,1.232c-.072.123-.144.244-.205.363s-.121.205-.175.32-.092.173-.131.259-.113.205-.158.318-.109.226-.156.335-.076.171-.111.255-.082.191-.121.283-.076.205-.111.3a.092.092,0,0,0-.012.035c-.018.053-.037.1-.055.152s-.033.1-.049.154a.8.8,0,0,0-.041.117c-.027.082-.051.162-.07.238a.349.349,0,0,1-.023.076c-.018.058-.031.113-.045.168a1.006,1.006,0,0,0-.025.107,1.132,1.132,0,0,0-.029.113v.023a.088.088,0,0,1,0,.023.051.051,0,0,0,0,.025.482.482,0,0,0-.018.074c2.343-22.989,25.554-62.378,25.554-62.378s18.325-34.761,35.258-43.688a12.23,12.23,0,0,1,11.388,0c16.933,8.927,35.262,43.688,35.262,43.688S333.146,319.4,317.628,332.031Z" transform="translate(-148.209 -166.058)" fill="#fff"/><path d="M492.891,647.363c-.242-.136-.5-.276-.774-.411l-.246-.132a9.9,9.9,0,0,1,1.021.542Z" transform="translate(-389.546 -512.675)" fill="#fff"/><path d="M249.037,652.379c-1.924,1.575-4.346,3.51-7.116,5.617a.138.138,0,0,0-.033.024c-12.367,9.414-31.581,22.266-43.947,21.921a11.407,11.407,0,0,1-7.081-2.366c-2.643-2.153-3.748-5.784-3.76-10.33,0-.727.025-1.479.078-2.259h0c.031-.448.068-.906.117-1.37a.481.481,0,0,1,.019-.074.047.047,0,0,1,0-.024.084.084,0,0,0,0-.023v-.023a1.125,1.125,0,0,1,.029-.113.945.945,0,0,1,.025-.107c.014-.056.027-.111.045-.169a.356.356,0,0,1,.023-.076c2.029-6.777,16.926-17.879,33.413-17.53C239.75,645.477,248.248,651.761,249.037,652.379Z" transform="translate(-147.367 -511.603)" fill="#f2f2f2"/><path d="M255.111,628.644l-.181.158c-.575.5-2.189,1.889-4.551,3.82-.789-.616-9.287-6.9-28.177-6.9-16.487-.349-31.384,10.763-33.413,17.53.021-.076.045-.156.07-.238a.8.8,0,0,1,.041-.117c.016-.049.031-.1.049-.154s.037-.1.055-.152a.094.094,0,0,1,.012-.035c.035-.1.072-.205.111-.3s.078-.189.121-.284.072-.168.111-.255.1-.22.156-.335.1-.206.158-.319.086-.172.131-.259.113-.205.175-.32.135-.24.205-.363q.348-.616.77-1.232c.084-.127.171-.253.257-.38a34.8,34.8,0,0,1,3.187-3.9c.232-.245.466-.489.711-.734l.205-.2.481-.475c1.045-1.014,2.183-2.019,3.409-2.994.294-.234.593-.47.9-.7s.616-.464.936-.692c.146-.108.3-.2.446-.32.205-.137.4-.277.6-.41l.111-.076c.189-.129.378-.256.571-.382.154-.1.314-.205.476-.312l.54-.343.068-.043c.152-.093.3-.189.458-.282l.452-.269c.205-.121.4-.238.6-.354.536-.31,1.08-.606,1.643-.894.125-.069.253-.133.382-.195.2-.106.394-.205.6-.3.16-.083.324-.158.489-.236.216-.1.435-.206.659-.31l.435-.205.45-.193a.756.756,0,0,1,.08-.035l.649-.273.14-.056q.32-.129.647-.253c.246-.1.5-.189.748-.279s.45-.16.676-.238l.226-.078.579-.187c.205-.066.411-.131.616-.189.152-.047.3-.091.456-.134s.325-.092.485-.136c.205-.063.427-.119.645-.17l.6-.144c.335-.084.676-.159,1.015-.224.138-.031.273-.055.411-.08s.3-.057.452-.087c.232-.043.47-.084.708-.117s.458-.068.686-.1c.154-.024.312-.043.47-.059s.372-.048.557-.066q.376-.039.751-.068c.279-.024.555-.043.834-.055.776-.043,1.563-.059,2.351-.039,13.158,0,21.629,3.027,26.195,5.35h.033l.247.131c.273.142.532.281.774.411h0A32.115,32.115,0,0,1,255.111,628.644Z" transform="translate(-148.71 -491.846)" fill="#fff"/><path d="M492.891,647.363c-.242-.136-.5-.276-.774-.411l-.246-.132a9.9,9.9,0,0,1,1.021.542Z" transform="translate(-389.546 -512.675)" fill="none"/><path d="M255.111,628.644l-.181.158c-.575.5-2.189,1.889-4.551,3.82-.789-.616-9.287-6.9-28.177-6.9-16.487-.349-31.384,10.763-33.413,17.53.021-.076.045-.156.07-.238a.8.8,0,0,1,.041-.117c.016-.049.031-.1.049-.154s.037-.1.055-.152a.094.094,0,0,1,.012-.035c.035-.1.072-.205.111-.3s.078-.189.121-.284.072-.168.111-.255.1-.22.156-.335.1-.206.158-.319.086-.172.131-.259.113-.205.175-.32.135-.24.205-.363q.348-.616.77-1.232c.084-.127.171-.253.257-.38a34.8,34.8,0,0,1,3.187-3.9c.232-.245.466-.489.711-.734l.205-.2.481-.475c1.045-1.014,2.183-2.019,3.409-2.994.294-.234.593-.47.9-.7s.616-.464.936-.692c.146-.108.3-.2.446-.32.205-.137.4-.277.6-.41l.111-.076c.189-.129.378-.256.571-.382.154-.1.314-.205.476-.312l.54-.343.068-.043c.152-.093.3-.189.458-.282l.452-.269c.205-.121.4-.238.6-.354.536-.31,1.08-.606,1.643-.894.125-.069.253-.133.382-.195.2-.106.394-.205.6-.3.16-.083.324-.158.489-.236.216-.1.435-.206.659-.31l.435-.205.45-.193a.756.756,0,0,1,.08-.035l.649-.273.14-.056q.32-.129.647-.253c.246-.1.5-.189.748-.279s.45-.16.676-.238l.226-.078.579-.187c.205-.066.411-.131.616-.189.152-.047.3-.091.456-.134s.325-.092.485-.136c.205-.063.427-.119.645-.17l.6-.144c.335-.084.676-.159,1.015-.224.138-.031.273-.055.411-.08s.3-.057.452-.087c.232-.043.47-.084.708-.117s.458-.068.686-.1c.154-.024.312-.043.47-.059s.372-.048.557-.066q.376-.039.751-.068c.279-.024.555-.043.834-.055.776-.043,1.563-.059,2.351-.039,13.158,0,21.629,3.027,26.195,5.35h.033l.247.131c.273.142.532.281.774.411h0A32.115,32.115,0,0,1,255.111,628.644Z" transform="translate(-148.71 -491.846)" opacity="0.3" style="mix-blend-mode:multiply;isolation:isolate"/></g></g></g></g></g><path d="M112.392-45.864A57.368,57.368,0,0,1,109.2-26.376,42.883,42.883,0,0,1,99.708-10.92,43.48,43.48,0,0,1,84-.672a58.979,58.979,0,0,1-21.672,3.7,59.485,59.485,0,0,1-21.84-3.7A43.48,43.48,0,0,1,24.78-10.92a42.883,42.883,0,0,1-9.492-15.456A57.368,57.368,0,0,1,12.1-45.864v-73.08H38.3v72.072a28.962,28.962,0,0,0,1.764,10.248,24.483,24.483,0,0,0,4.956,8.148A22.5,22.5,0,0,0,52.668-23.1a24,24,0,0,0,9.66,1.932A23.409,23.409,0,0,0,71.9-23.1a22.722,22.722,0,0,0,7.56-5.376,24.483,24.483,0,0,0,4.956-8.148,28.961,28.961,0,0,0,1.764-10.248v-72.072h26.208Zm23.352-35.784h23.184V-70.9h.336a27.843,27.843,0,0,1,3.948-4.452,29.87,29.87,0,0,1,5.712-4.116,35.541,35.541,0,0,1,7.14-3.024,28.128,28.128,0,0,1,8.232-1.176,42.082,42.082,0,0,1,16.464,3.108,36.713,36.713,0,0,1,12.684,8.736,38.954,38.954,0,0,1,8.148,13.356A48.6,48.6,0,0,1,224.448-41.5a51.454,51.454,0,0,1-2.6,16.38,45.078,45.078,0,0,1-7.392,13.86A36.11,36.11,0,0,1,202.776-1.6a33.134,33.134,0,0,1-15.624,3.612,43.3,43.3,0,0,1-14.7-2.436A23.524,23.524,0,0,1,161.28-8.736h-.336V38.3h-25.2Zm23.184,40.824q0,9.24,5.292,14.952t14.868,5.712q9.576,0,14.868-5.712t5.292-14.952q0-9.24-5.292-14.952t-14.868-5.712q-9.576,0-14.868,5.712T158.928-40.824ZM350.112-8.4A94.876,94.876,0,0,1,325.92.336a122.855,122.855,0,0,1-25.7,2.688,73.278,73.278,0,0,1-25.7-4.368A58.84,58.84,0,0,1,254.184-13.86,56.743,56.743,0,0,1,240.828-33.6a67.177,67.177,0,0,1-4.788-25.872,67.177,67.177,0,0,1,4.788-25.872,56.743,56.743,0,0,1,13.356-19.74A58.839,58.839,0,0,1,274.512-117.6a73.278,73.278,0,0,1,25.7-4.368,95.132,95.132,0,0,1,26.292,3.444,51.478,51.478,0,0,1,21.084,11.844l-18.48,20.16a36.82,36.82,0,0,0-12.1-8.4q-6.72-2.856-16.8-2.856a38.925,38.925,0,0,0-15.2,2.856,34.122,34.122,0,0,0-11.676,7.98,35.052,35.052,0,0,0-7.476,12.18,43.821,43.821,0,0,0-2.6,15.288,43.625,43.625,0,0,0,2.6,15.372A35.209,35.209,0,0,0,273.336-32a34.122,34.122,0,0,0,11.676,7.98,38.925,38.925,0,0,0,15.2,2.856A50.093,50.093,0,0,0,315-23.1a55.794,55.794,0,0,0,9.912-3.948v-19.32H303.576V-70.56h46.536Zm19.824-73.248h25.2v13.1h.336a30.974,30.974,0,0,1,9.576-11.34q5.544-3.78,13.944-3.78,2.184,0,4.368.168a21.631,21.631,0,0,1,4.032.672v23.016a38.066,38.066,0,0,0-5.292-1.26,34.267,34.267,0,0,0-5.46-.42q-7.224,0-11.424,2.016a15.168,15.168,0,0,0-6.468,5.628,21.39,21.39,0,0,0-2.94,8.652,84.248,84.248,0,0,0-.672,11.088V0h-25.2Zm119.616,71.4h-.336A23.7,23.7,0,0,1,478.044-.84a38.4,38.4,0,0,1-14.7,2.856,37.9,37.9,0,0,1-11-1.6,27.77,27.77,0,0,1-9.324-4.788,23.121,23.121,0,0,1-6.384-7.9,24.117,24.117,0,0,1-2.352-10.92,25.037,25.037,0,0,1,2.6-11.928,23.3,23.3,0,0,1,7.056-8.064A35.039,35.039,0,0,1,454.1-48.132a74.194,74.194,0,0,1,11.844-2.6,113.127,113.127,0,0,1,12.264-1.008q6.132-.168,11.34-.168a13.1,13.1,0,0,0-4.788-10.668,17.267,17.267,0,0,0-11.34-3.948,24.665,24.665,0,0,0-11.34,2.6,30.977,30.977,0,0,0-9.156,7.14L439.488-70.56a46.244,46.244,0,0,1,16.464-9.828,58.841,58.841,0,0,1,19.488-3.276q11.088,0,18.228,2.772a26.507,26.507,0,0,1,11.424,8.148,31.4,31.4,0,0,1,5.964,13.188,86.55,86.55,0,0,1,1.68,18.06V0H489.552Zm-6.216-25.536q-2.856,0-7.14.252a36.18,36.18,0,0,0-8.232,1.428,18.319,18.319,0,0,0-6.72,3.528,8.128,8.128,0,0,0-2.772,6.552,7.209,7.209,0,0,0,3.864,6.72A16.164,16.164,0,0,0,470.4-15.12a25.287,25.287,0,0,0,7.14-1.008,21.3,21.3,0,0,0,6.132-2.856,13.806,13.806,0,0,0,4.284-4.7,13.555,13.555,0,0,0,1.6-6.72v-5.376ZM614.208,0H591.024V-10.752h-.336A27.845,27.845,0,0,1,586.74-6.3a29.871,29.871,0,0,1-5.712,4.116A34.964,34.964,0,0,1,573.8.84a28.39,28.39,0,0,1-8.148,1.176,42.082,42.082,0,0,1-16.464-3.108,36.713,36.713,0,0,1-12.684-8.736,38.954,38.954,0,0,1-8.148-13.356A48.6,48.6,0,0,1,525.5-40.152a51.454,51.454,0,0,1,2.6-16.38,45.079,45.079,0,0,1,7.392-13.86,36.11,36.11,0,0,1,11.676-9.66A33.134,33.134,0,0,1,562.8-83.664a43.3,43.3,0,0,1,14.7,2.436,23.524,23.524,0,0,1,11.172,8.316h.336v-54.1h25.2ZM591.024-40.824q0-9.24-5.292-14.952t-14.868-5.712q-9.576,0-14.868,5.712T550.7-40.824q0,9.24,5.292,14.952t14.868,5.712q9.576,0,14.868-5.712T591.024-40.824ZM711.648-14.112A40.211,40.211,0,0,1,696.36-2.184a45.8,45.8,0,0,1-19.152,4.2,51.461,51.461,0,0,1-17.724-3.024A42.66,42.66,0,0,1,645.036-9.66a40.6,40.6,0,0,1-9.66-13.524,42.775,42.775,0,0,1-3.528-17.64,42.775,42.775,0,0,1,3.528-17.64,40.6,40.6,0,0,1,9.66-13.524,42.66,42.66,0,0,1,14.448-8.652,51.462,51.462,0,0,1,17.724-3.024,40.318,40.318,0,0,1,15.876,3.024,33.056,33.056,0,0,1,12.1,8.652,39.4,39.4,0,0,1,7.644,13.524,54.51,54.51,0,0,1,2.688,17.64v7.9H657.048A19.944,19.944,0,0,0,663.6-21.42a18.535,18.535,0,0,0,12.432,4.284,18.928,18.928,0,0,0,10.5-2.772,28.232,28.232,0,0,0,7.476-7.14ZM690.312-50.064a14.588,14.588,0,0,0-4.2-10.92,14.935,14.935,0,0,0-11.256-4.536,18.925,18.925,0,0,0-7.392,1.344A18.527,18.527,0,0,0,662-60.732a15.1,15.1,0,0,0-3.528,4.872,16.039,16.039,0,0,0-1.428,5.8Z" transform="translate(1699 1463)" fill="#2c2c2c"/></g></svg>